<svg xmlns="http://www.w3.org/2000/svg" viewBox="0 0 500 500"><g id="freepik--background-complete--inject-20"><rect y="382.4" width="500" height="0.25" style="fill:#ebebeb"></rect><rect x="416.78" y="398.49" width="33.12" height="0.25" style="fill:#ebebeb"></rect><rect x="322.53" y="401.21" width="8.69" height="0.25" style="fill:#ebebeb"></rect><rect x="396.59" y="389.21" width="19.19" height="0.25" style="fill:#ebebeb"></rect><rect x="52.46" y="390.89" width="43.19" height="0.25" style="fill:#ebebeb"></rect><rect x="104.56" y="390.89" width="6.33" height="0.25" style="fill:#ebebeb"></rect><rect x="131.47" y="395.11" width="93.68" height="0.25" style="fill:#ebebeb"></rect><path d="M237,337.8H43.91a5.71,5.71,0,0,1-5.7-5.71V60.66A5.71,5.71,0,0,1,43.91,55H237a5.71,5.71,0,0,1,5.71,5.71V332.09A5.71,5.71,0,0,1,237,337.8ZM43.91,55.2a5.46,5.46,0,0,0-5.45,5.46V332.09a5.46,5.46,0,0,0,5.45,5.46H237a5.47,5.47,0,0,0,5.46-5.46V60.66A5.47,5.47,0,0,0,237,55.2Z" style="fill:#ebebeb"></path><path d="M453.31,337.8H260.21a5.72,5.72,0,0,1-5.71-5.71V60.66A5.72,5.72,0,0,1,260.21,55h193.1A5.71,5.71,0,0,1,459,60.66V332.09A5.71,5.71,0,0,1,453.31,337.8ZM260.21,55.2a5.47,5.47,0,0,0-5.46,5.46V332.09a5.47,5.47,0,0,0,5.46,5.46h193.1a5.47,5.47,0,0,0,5.46-5.46V60.66a5.47,5.47,0,0,0-5.46-5.46Z" style="fill:#ebebeb"></path><polygon points="256.53 326.51 254.97 322.14 243.62 322.14 240.5 326.51 256.53 326.51" style="fill:#e0e0e0"></polygon><polygon points="251.48 369.38 245.55 369.38 266.57 345.89 272.5 345.89 251.48 369.38" style="fill:#e0e0e0"></polygon><polygon points="245.55 369.38 251.48 369.38 230.46 345.89 224.53 345.89 245.55 369.38" style="fill:#e0e0e0"></polygon><rect x="132.97" y="250.88" width="231.09" height="5.93" transform="translate(502.36 5.32) rotate(90)" style="fill:#e0e0e0"></rect><path d="M201.47,382.17l37.24-58.59a3.1,3.1,0,0,1,2.63-1.44h4.21l-38.15,60Z" style="fill:#e0e0e0"></path><path d="M201.47,382.17l37.24-58.59a3.1,3.1,0,0,1,2.63-1.44h4.21l-38.15,60Z" style="fill:#e0e0e0;opacity:0.30000000000000004"></path><path d="M295.56,382.17l-37.24-58.59a3.1,3.1,0,0,0-2.63-1.44h-4.21l38.16,60Z" style="fill:#e0e0e0"></path><path d="M295.56,382.17l-37.24-58.59a3.1,3.1,0,0,0-2.63-1.44h-4.21l38.16,60Z" style="fill:#e0e0e0;opacity:0.30000000000000004"></path><rect x="157.3" y="100.9" width="185.4" height="253.86" style="fill:#fafafa"></rect><rect x="155.84" y="91.54" width="188.32" height="10.1" style="fill:#ebebeb"></rect><polygon points="92.33 326.51 90.78 322.14 79.43 322.14 76.31 326.51 92.33 326.51" style="fill:#e0e0e0"></polygon><polygon points="87.29 369.38 81.36 369.38 102.38 345.89 108.31 345.89 87.29 369.38" style="fill:#e0e0e0"></polygon><polygon points="81.36 369.38 87.29 369.38 66.27 345.89 60.34 345.89 81.36 369.38" style="fill:#e0e0e0"></polygon><rect x="-31.22" y="250.88" width="231.09" height="5.93" transform="translate(338.16 169.52) rotate(90)" style="fill:#e0e0e0"></rect><path d="M37.28,382.17l37.24-58.59a3.1,3.1,0,0,1,2.63-1.44h4.21l-38.16,60Z" style="fill:#e0e0e0"></path><path d="M37.28,382.17l37.24-58.59a3.1,3.1,0,0,1,2.63-1.44h4.21l-38.16,60Z" style="fill:#e0e0e0;opacity:0.30000000000000004"></path><path d="M131.37,382.17,94.13,323.58a3.1,3.1,0,0,0-2.63-1.44H87.29l38.15,60Z" style="fill:#e0e0e0"></path><path d="M131.37,382.17,94.13,323.58a3.1,3.1,0,0,0-2.63-1.44H87.29l38.15,60Z" style="fill:#e0e0e0;opacity:0.30000000000000004"></path><rect x="79.21" y="138.3" width="10.22" height="14.01" transform="translate(168.65 290.6) rotate(180)" style="fill:#ebebeb"></rect><path d="M95.73,130.14l-15.89-6.46a12.23,12.23,0,0,0-5,5.61,10.94,10.94,0,0,0-.09,7.69L90,143.61Z" style="fill:#ebebeb"></path><path d="M99.8,202.38s-20.65-38-7.85-67.56c13.33-30.82,42.65-36,42.65-36l.34.11L100,202.39Z" style="fill:#e6e6e6"></path><polygon points="134.6 98.78 157.72 106.24 123.12 203.6 99.8 202.38 134.6 98.78" style="fill:#e0e0e0"></polygon><polyline points="133.38 102.42 152.1 108.59 121.21 197.02 102.06 195.64 133.38 102.42" style="fill:#407BFF"></polyline><polyline points="133.38 102.42 152.1 108.59 121.21 197.02 102.06 195.64 133.38 102.42" style="fill:#f5f5f5"></polyline><polygon points="130.09 112.21 140.33 116.01 152.1 108.59 133.38 102.42 130.09 112.21" style="fill:#f5f5f5"></polygon><polygon points="118.84 180.17 121.21 197.02 102.06 195.64 107.46 179.57 118.84 180.17" style="fill:#f5f5f5"></polygon><polygon points="130.09 112.21 140.33 116.01 118.84 180.17 107.46 179.57 130.09 112.21" style="fill:#fff"></polygon><polygon points="407.67 326.51 409.22 322.14 420.57 322.14 423.69 326.51 407.67 326.51" style="fill:#e0e0e0"></polygon><polygon points="412.71 369.38 418.64 369.38 397.62 345.89 391.69 345.89 412.71 369.38" style="fill:#e0e0e0"></polygon><polygon points="418.64 369.38 412.71 369.38 433.73 345.89 439.66 345.89 418.64 369.38" style="fill:#e0e0e0"></polygon><rect x="300.13" y="250.88" width="231.09" height="5.93" transform="translate(669.52 -161.84) rotate(90)" style="fill:#e0e0e0"></rect><path d="M462.72,382.17l-37.24-58.59a3.1,3.1,0,0,0-2.63-1.44h-4.21l38.16,60Z" style="fill:#e0e0e0"></path><path d="M462.72,382.17l-37.24-58.59a3.1,3.1,0,0,0-2.63-1.44h-4.21l38.16,60Z" style="fill:#e0e0e0;opacity:0.30000000000000004"></path><path d="M368.63,382.17l37.24-58.59a3.1,3.1,0,0,1,2.63-1.44h4.21l-38.15,60Z" style="fill:#e0e0e0"></path><path d="M368.63,382.17l37.24-58.59a3.1,3.1,0,0,1,2.63-1.44h4.21l-38.15,60Z" style="fill:#e0e0e0;opacity:0.30000000000000004"></path><rect x="410.57" y="138.3" width="10.22" height="14.01" style="fill:#ebebeb"></rect><path d="M404.27,130.14l15.89-6.46a12.29,12.29,0,0,1,5,5.61,10.94,10.94,0,0,1,.09,7.69L410,143.61Z" style="fill:#ebebeb"></path><path d="M400.2,202.38s20.65-38,7.85-67.56c-13.33-30.82-42.65-36-42.65-36l-.34.11L400,202.39Z" style="fill:#e6e6e6"></path><polygon points="365.4 98.78 342.28 106.24 376.88 203.6 400.2 202.38 365.4 98.78" style="fill:#e0e0e0"></polygon><polyline points="366.62 102.42 347.9 108.59 378.79 197.02 397.94 195.64 366.62 102.42" style="fill:#407BFF"></polyline><polyline points="366.62 102.42 347.9 108.59 378.79 197.02 397.94 195.64 366.62 102.42" style="fill:#f5f5f5"></polyline><polygon points="369.91 112.21 359.67 116.01 347.9 108.59 366.62 102.42 369.91 112.21" style="fill:#f5f5f5"></polygon><polygon points="381.16 180.17 378.79 197.02 397.94 195.64 392.54 179.57 381.16 180.17" style="fill:#f5f5f5"></polygon><polygon points="369.91 112.21 359.67 116.01 381.16 180.17 392.54 179.57 369.91 112.21" style="fill:#fff"></polygon></g><g id="freepik--Shadow--inject-20"><ellipse id="freepik--path--inject-20" cx="250" cy="416.24" rx="193.89" ry="11.32" style="fill:#f5f5f5"></ellipse></g><g id="freepik--Camera--inject-20"><rect x="196.32" y="278.49" width="17.4" height="6.12" style="fill:#407BFF"></rect><rect x="233.62" y="280.49" width="15.32" height="4.87" style="fill:#407BFF"></rect><polygon points="252.56 272.71 230 272.71 231.93 270.57 250.63 270.57 252.56 272.71" style="fill:#407BFF"></polygon><path d="M420.84,271.28H264.93l-12.55,11.46H181.53a3.22,3.22,0,0,0-3.22,3.22V415a3.22,3.22,0,0,0,3.22,3.22H420.84a3.22,3.22,0,0,0,3.22-3.22V274.51A3.23,3.23,0,0,0,420.84,271.28Z" style="fill:#407BFF"></path><path d="M420.84,271.28H264.93l-12.55,11.46H181.53a3.22,3.22,0,0,0-3.22,3.22V415a3.22,3.22,0,0,0,3.22,3.22H420.84a3.22,3.22,0,0,0,3.22-3.22V274.51A3.23,3.23,0,0,0,420.84,271.28Z" style="fill:#fff;opacity:0.6000000000000001;isolation:isolate"></path><rect x="178.31" y="307.87" width="245.75" height="104.74" style="fill:#407BFF"></rect><path d="M424.06,274.51V415a3.23,3.23,0,0,1-3.22,3.22h-38.6a3.23,3.23,0,0,0,3.22-3.22V274.51a3.23,3.23,0,0,0-3.22-3.23h38.6A3.23,3.23,0,0,1,424.06,274.51Z" style="opacity:0.2;isolation:isolate"></path><rect x="336.1" y="277.05" width="34.36" height="26.34" rx="3.05" style="fill:#263238"></rect><rect x="338.02" y="278.49" width="30.47" height="23.36" rx="2.71" style="opacity:0.4;isolation:isolate"></rect><rect x="345.5" y="282.03" width="21.78" height="16.7" rx="1.94" style="opacity:0.4;isolation:isolate"></rect><path d="M346.82,294.33v-9.08a1.61,1.61,0,0,1,1.61-1.61h11S355.21,291.57,346.82,294.33Z" style="fill:#fff;opacity:0.2;isolation:isolate"></path><rect x="281.72" y="277" width="24.18" height="6.6" rx="1.82" style="opacity:0.4;isolation:isolate"></rect><rect x="283.22" y="278.53" width="21.18" height="3.53" style="fill:#fff;opacity:0.6000000000000001;isolation:isolate"></rect><circle cx="269.56" cy="280.32" r="3.32" style="opacity:0.4;isolation:isolate"></circle><path d="M240.83,306.09q-.37,0-.75-.06a8.71,8.71,0,0,1-1,.06h-.2a8.85,8.85,0,0,1-8.52-8.22,8.75,8.75,0,0,1,6.53-9.06v-2a2.25,2.25,0,0,1,2.24-2.24h1.93a2.25,2.25,0,0,1,2.24,2.24v2a8.78,8.78,0,0,1-2.24,17.28Z" style="opacity:0.30000000000000004;isolation:isolate"></path><path d="M242.35,289.59v-2.8a1.27,1.27,0,0,0-1.27-1.27h-1.93a1.27,1.27,0,0,0-1.27,1.27v2.8a7.81,7.81,0,0,0-6.54,8.22,7.9,7.9,0,0,0,7.58,7.31,7.52,7.52,0,0,0,1.17-.06,6.32,6.32,0,0,0,.76.06,7.82,7.82,0,0,0,1.5-15.53Z" style="fill:#407BFF"></path><path d="M242.35,289.59v-2.8a1.27,1.27,0,0,0-1.27-1.27h-1.93a1.27,1.27,0,0,0-1.27,1.27v2.8a7.81,7.81,0,0,0-6.54,8.22,7.9,7.9,0,0,0,7.58,7.31,7.52,7.52,0,0,0,1.17-.06,6.32,6.32,0,0,0,.76.06,7.82,7.82,0,0,0,1.5-15.53Z" style="fill:#fff;opacity:0.4;isolation:isolate"></path><path d="M240.42,289.59v-2.8a1.27,1.27,0,0,0-1.27-1.27h0a1.27,1.27,0,0,0-1.27,1.27v2.8a7.81,7.81,0,0,0-6.54,8.22A7.83,7.83,0,0,0,247,297.3,7.82,7.82,0,0,0,240.42,289.59Z" style="fill:#fff;opacity:0.4;isolation:isolate"></path><rect x="211.34" y="284.98" width="7.63" height="24.2" rx="0.8" transform="translate(512.23 81.92) rotate(90)" style="opacity:0.30000000000000004;isolation:isolate"></rect><rect x="204.02" y="294.22" width="22.27" height="5.7" style="fill:#407BFF"></rect><rect x="204.02" y="294.22" width="22.27" height="5.7" style="fill:#fff;opacity:0.4;isolation:isolate"></rect><rect x="209.4" y="294.51" width="4.15" height="5.15" style="fill:#fff;opacity:0.6000000000000001;isolation:isolate"></rect><rect x="214.12" y="294.51" width="2.1" height="5.15" transform="translate(430.34 594.18) rotate(180)" style="fill:#fff;opacity:0.6000000000000001;isolation:isolate"></rect><rect x="217.02" y="294.51" width="1.78" height="5.15" transform="translate(435.82 594.18) rotate(180)" style="fill:#fff;opacity:0.6000000000000001;isolation:isolate"></rect><rect x="219.91" y="294.51" width="1.21" height="5.15" transform="translate(441.04 594.18) rotate(180)" style="fill:#fff;opacity:0.6000000000000001;isolation:isolate"></rect><rect x="223.41" y="294.51" width="0.61" height="5.15" transform="translate(447.43 594.18) rotate(180)" style="fill:#fff;opacity:0.6000000000000001;isolation:isolate"></rect><rect x="206.69" y="294.51" width="2.1" height="5.15" transform="translate(415.48 594.18) rotate(180)" style="fill:#fff;opacity:0.6000000000000001;isolation:isolate"></rect><rect x="204.47" y="294.51" width="1.49" height="5.15" transform="translate(410.43 594.18) rotate(180)" style="fill:#fff;opacity:0.6000000000000001;isolation:isolate"></rect><rect x="229.4" y="272.25" width="23.77" height="9.18" style="fill:#407BFF"></rect><rect x="229.4" y="272.25" width="23.77" height="9.18" style="fill:#fff;opacity:0.4;isolation:isolate"></rect><rect x="235.14" y="272.71" width="4.43" height="8.29" style="fill:#fff;opacity:0.6000000000000001;isolation:isolate"></rect><rect x="240.18" y="272.71" width="2.24" height="8.29" transform="translate(482.6 553.71) rotate(180)" style="fill:#fff;opacity:0.6000000000000001;isolation:isolate"></rect><rect x="243.27" y="272.71" width="1.9" height="8.29" transform="translate(488.45 553.71) rotate(180)" style="fill:#fff;opacity:0.6000000000000001;isolation:isolate"></rect><rect x="246.36" y="272.71" width="1.3" height="8.29" transform="translate(494.02 553.71) rotate(180)" style="fill:#fff;opacity:0.6000000000000001;isolation:isolate"></rect><rect x="250.1" y="272.71" width="0.65" height="8.29" transform="translate(500.85 553.71) rotate(180)" style="fill:#fff;opacity:0.6000000000000001;isolation:isolate"></rect><rect x="232.25" y="272.71" width="2.24" height="8.29" transform="translate(466.73 553.71) rotate(180)" style="fill:#fff;opacity:0.6000000000000001;isolation:isolate"></rect><rect x="229.88" y="272.71" width="1.59" height="8.29" transform="translate(461.35 553.71) rotate(180)" style="fill:#fff;opacity:0.6000000000000001;isolation:isolate"></rect><rect x="193.13" y="274.07" width="23.77" height="7.36" style="fill:#407BFF"></rect><rect x="193.13" y="274.07" width="23.77" height="7.36" style="fill:#fff;opacity:0.4;isolation:isolate"></rect><rect x="198.87" y="274.44" width="4.43" height="6.65" style="fill:#fff;opacity:0.6000000000000001;isolation:isolate"></rect><rect x="203.92" y="274.44" width="2.24" height="6.65" transform="translate(410.08 555.52) rotate(180)" style="fill:#fff;opacity:0.6000000000000001;isolation:isolate"></rect><rect x="207.01" y="274.44" width="1.9" height="6.65" transform="translate(415.92 555.52) rotate(180)" style="fill:#fff;opacity:0.6000000000000001;isolation:isolate"></rect><rect x="210.1" y="274.44" width="1.3" height="6.65" transform="translate(421.49 555.52) rotate(180)" style="fill:#fff;opacity:0.6000000000000001;isolation:isolate"></rect><rect x="213.84" y="274.44" width="0.65" height="6.65" transform="translate(428.32 555.52) rotate(180)" style="fill:#fff;opacity:0.6000000000000001;isolation:isolate"></rect><rect x="195.98" y="274.44" width="2.24" height="6.65" transform="translate(394.2 555.52) rotate(180)" style="fill:#fff;opacity:0.6000000000000001;isolation:isolate"></rect><rect x="193.62" y="274.44" width="1.59" height="6.65" transform="translate(388.82 555.52) rotate(180)" style="fill:#fff;opacity:0.6000000000000001;isolation:isolate"></rect><ellipse cx="289.51" cy="346.6" rx="51.57" ry="54.47" style="fill:#407BFF"></ellipse><ellipse cx="289.51" cy="346.6" rx="51.57" ry="54.47" style="opacity:0.2;isolation:isolate"></ellipse><path d="M289.51,293.73h-19.3c-27.65,0-50.06,23.67-50.06,52.87s22.41,52.87,50.06,52.87h19.3c27.65,0,50.06-23.67,50.06-52.87S317.16,293.73,289.51,293.73Z" style="fill:#407BFF"></path><path d="M289.51,293.73h-19.3c-27.65,0-50.06,23.67-50.06,52.87s22.41,52.87,50.06,52.87h19.3c27.65,0,50.06-23.67,50.06-52.87S317.16,293.73,289.51,293.73Z" style="fill:#fff;opacity:0.30000000000000004;isolation:isolate"></path><ellipse cx="270.21" cy="346.6" rx="50.06" ry="52.87" style="fill:#fff;opacity:0.6000000000000001;isolation:isolate"></ellipse><path d="M269.85,297.33h-18c-25.77,0-46.65,22.06-46.65,49.27s20.88,49.27,46.65,49.27h18c25.76,0,46.65-22.06,46.65-49.27S295.61,297.33,269.85,297.33Z" style="fill:#407BFF"></path><path d="M269.85,297.33h-18c-25.77,0-46.65,22.06-46.65,49.27s20.88,49.27,46.65,49.27h18c25.76,0,46.65-22.06,46.65-49.27S295.61,297.33,269.85,297.33Z" style="fill:#fff;opacity:0.30000000000000004;isolation:isolate"></path><ellipse cx="251.87" cy="346.6" rx="46.65" ry="49.27" style="fill:#fff;opacity:0.6000000000000001;isolation:isolate"></ellipse><path d="M251.86,391C228.8,391,210,371.11,210,346.6s18.76-44.45,41.82-44.45,41.83,19.94,41.83,44.45S274.92,391,251.86,391Z" style="fill:#263238"></path><path d="M254.28,391c-.8,0-1.6.08-2.41.08-23.06,0-41.83-19.94-41.83-44.45s18.77-44.45,41.83-44.45c.81,0,1.61,0,2.41.08-21.94,1.33-39.42,20.72-39.42,44.37S232.34,389.64,254.28,391Z" style="opacity:0.4;isolation:isolate"></path><path d="M254.76,384.29c-19.34,0-35.07-16.91-35.07-37.69s15.73-37.69,35.07-37.69,35.07,16.91,35.07,37.69S274.1,384.29,254.76,384.29Z" style="opacity:0.4;isolation:isolate"></path><rect x="240.12" y="332.4" width="35.29" height="26.47" rx="2.86" style="fill:#263238"></rect><path d="M254.76,376.57c-15.08,0-27.35-13.45-27.35-30s12.27-30,27.35-30,27.35,13.44,27.35,30S269.84,376.57,254.76,376.57Z" style="opacity:0.4;isolation:isolate"></path><path d="M242.47,349.07V337.64a2.42,2.42,0,0,1,2.42-2.42h18.37S258.6,346.56,242.47,349.07Z" style="fill:#fff;opacity:0.2;isolation:isolate"></path></g><g id="freepik--character-2--inject-20"><path d="M298.52,186.57s1.7-1.9-1.65-4.36-12.33,1-15.08,8.55,4.24,9.87-3.24,17-5.37,11.64,2.24,18.69.25,10.45.5,15-.3,10.19,15,2.06,16.69-28.05,17.19-39.11S305.4,182.17,298.52,186.57Z" style="fill:#263238"></path><path d="M315.41,195.65,311,198.13s.13-3-1.65-2.66a18.68,18.68,0,0,0-1.8.51c-3.21,1-9,3.09-9,3.09l-1.66-3.42s4.63-2.08,9-3.51c3.08-1,6-1.74,7.12-1.18C315.6,192.32,315.41,195.65,315.41,195.65Z" style="fill:#ebb376"></path><path d="M307.53,196c-3.21,1-9,3.09-9,3.09l-1.66-3.42s4.63-2.08,9-3.51A10,10,0,0,1,307.53,196Z" style="opacity:0.2;isolation:isolate"></path><path d="M317.31,214.79a15.36,15.36,0,0,1-1.74,3.49c-1.55,2.19-3.49,2.09-5.37,1-3.61-2.08-7-7.76-7-7.76s7.36-10,7.47-11.42a19.05,19.05,0,0,1,.74-3.35s5.36-1.66,7.1-1.53C320,195.33,320.06,207.27,317.31,214.79Z" style="fill:#407BFF"></path><path d="M310.63,200.09l-1.13-3.35,8.6-3.66,3.24,2.87S314.77,199.72,310.63,200.09Z" style="fill:#407BFF"></path><path d="M310.63,200.09l-1.13-3.35,8.6-3.66,3.24,2.87S314.77,199.72,310.63,200.09Z" style="opacity:0.2;isolation:isolate"></path><path d="M317.31,214.79a15.36,15.36,0,0,1-1.74,3.49c-1.55,2.19-3.49,2.09-5.37,1l-1.94-7S313.9,210.47,317.31,214.79Z" style="opacity:0.2;isolation:isolate"></path><path d="M323.64,237.53l6,4.89s5.07.72,7.58,2a30.67,30.67,0,0,1,3,8.69c1.1,8.67-.71,19.12-12,18.92-16.49-.29-22.09-5.44-25.07-27.17Z" style="fill:#263238"></path><path d="M379,242.53c-5.72-.53-32.6,1-32.6,1l-9.15.9-2,.2s.43.6,1.06,1.54c1.85,2.78,5.38,8.56,4.34,10.87-1.58,3.49-11.95,7.41-14.85,8.44l-.75.27.55.1c11.89,2.11,35.36-5,46.78-8.71,3.77-1.22,6.23-2.07,6.52-2.09S380.31,242.64,379,242.53Z" style="fill:#ebb376"></path><polygon points="329.67 242.42 343.96 242.42 347.77 267.03 333.88 269.67 329.67 242.42" style="fill:#263238"></polygon><polygon points="342.87 241.86 346.14 267.68 348.3 267.03 345.02 241.86 342.87 241.86" style="fill:#407BFF"></polygon><path d="M372.38,257.15C361,260.84,337.49,268,325.6,265.86l.2-.37a44.86,44.86,0,0,0,5-16c.46-3.94-.92-5.93-.92-5.93a11,11,0,0,1,3.48,3.78S356.72,248.84,372.38,257.15Z" style="opacity:0.2;isolation:isolate"></path><path d="M437.69,261.92c-.1,2-.18,3.82-.25,5.48-.09,2-.17,3.84-.26,5.58-.13,3.08-3.47.33-8.79-.21l-.55,0h0c-.08,0-.14-.13-.17-.33a28.21,28.21,0,0,1,.17-4.76h0a35.3,35.3,0,0,0,2.72-2.62,16.48,16.48,0,0,0,3.9-5.94C435.59,255.11,437.89,257.45,437.69,261.92Z" style="fill:#ebb376"></path><path d="M429.37,267.67l-.22,4.95-.64.05-.27,0c-.13,0-.26,0-.4,0l-2.64.2c-9.28.63-32.68,1.8-45.77-1.34,0,0-46,.21-54.36-.05s-12.57-11.73-8.32-18.36c2.49-3.88,6.16-7.07,18-3.85s37.13,11.32,46.59,12.87c0,0,13.21,3.32,35.42,4.86h0l.52,0c3.32.22,6.83.41,10.54.53.3,0,.59,0,.89,0Z" style="fill:#ebb376"></path><polygon points="303.76 246.25 304.34 249.46 324.73 239.51 322.94 236.26 303.76 246.25"></polygon><rect x="310.1" y="242.34" width="1.07" height="5.44" transform="translate(-73.74 151.23) rotate(-24.55)" style="fill:#263238"></rect><rect x="314.93" y="239.68" width="4.72" height="3.58" transform="translate(-74.72 168.6) rotate(-26.74)" style="fill:#fff"></rect><rect x="321.78" y="236.16" width="1.07" height="5.44" transform="translate(-70.1 155.47) rotate(-24.54)" style="fill:#263238"></rect><path d="M323.19,236.73l-19.82,9.6a24.79,24.79,0,0,0-2.63-5.76A54.49,54.49,0,0,0,295,233c-5.56-6.33-10.73-11.13-6-15.53,7.49-7.05,20.4-8.86,26.1,0A69.15,69.15,0,0,1,323.19,236.73Z" style="fill:#407BFF"></path><path d="M314.25,254.79c1.91-4.79,5.89-11.58,24.83-4.26l-3.61,21.53H324.73C317.93,272.06,311.18,262.48,314.25,254.79Z" style="fill:#263238"></path><polygon points="338.34 249.46 334.54 272.64 336.44 272.64 340.15 250.19 338.34 249.46" style="fill:#407BFF"></polygon><path d="M291.16,213c3.67-2.41,11.52-3.66,18.76-2l-2.74.6,5.37,4.33s-2.21,2.62-1.92,3.74.54,6.8.54,6.8-6.73-6.36-12.1-8.61-7.91-2.17-7.91-2.17" style="fill:#407BFF"></path><path d="M291.16,213c3.67-2.41,11.52-3.66,18.76-2l-2.74.6,5.37,4.33s-2.21,2.62-1.92,3.74.54,6.8.54,6.8-3.26-7.27-10.2-9.61l-1.49,4a28.83,28.83,0,0,1-8.32-5.13" style="opacity:0.2;isolation:isolate"></path><path d="M309.24,223.29s-3.07-3.06-4.68-4.43c0,0-4.22.11-4.36-3.11l-7.58-1c4.48-2.16,4.42-3.72,3.9-5.92a8.84,8.84,0,0,0-1.7-3.37,4.69,4.69,0,0,0-.32-.37l7.73-.55.94-.07.6,0a3.79,3.79,0,0,0-.19.37c-.5,1-1.7,3.57-1.15,5.62.33,1.26,1.33,2.3,3.57,2.58C310.17,213.5,309.24,223.29,309.24,223.29Z" style="fill:#ebb376"></path><path d="M302.43,210.41a11,11,0,0,1-5.91-1.6,8.84,8.84,0,0,0-1.7-3.37l7.41-.92.88-.1a.14.14,0,0,0,.06,0l.41.34C303.08,205.74,301.88,208.36,302.43,210.41Z" style="opacity:0.2;isolation:isolate"></path><polygon points="291.16 215.7 291.16 212.99 300.2 215.75 299.26 219.99 291.16 215.7" style="fill:#407BFF"></polygon><path d="M298.4,187.34s3.7-9.05-3.58-8.44-8.91,14.33-15.65,21.19-9.61,1.74-9.61,1.74" style="fill:none;stroke:#263238;stroke-linecap:round;stroke-linejoin:round;stroke-width:0.5px"></path><path d="M296.3,188.26s1.35-4.3,7-3.37,6.3,11,3,15.51" style="fill:none;stroke:#263238;stroke-linecap:round;stroke-linejoin:round;stroke-width:0.5px"></path><path d="M291.55,189.47c5.42-3.08,8.81-1.16,12.38,4.2,4.47,6.7,5.74,12.54-1.89,14.9C291.68,211.77,282.54,194.59,291.55,189.47Z" style="fill:#ebb376"></path><path d="M300.26,195.36a13.47,13.47,0,0,0,2.85,1.35,1.69,1.69,0,0,1-1.08,1.42Z" style="fill:#d58745"></path><path d="M296.69,196.8c.26.44.24.93-.06,1.11s-.74,0-1-.48-.24-.94.05-1.11S296.42,196.36,296.69,196.8Z" style="fill:#263238"></path><path d="M295.57,196.41l.73-.94S296.31,196.56,295.57,196.41Z" style="fill:#263238"></path><path d="M302.1,193.43c.26.44.24.94-.06,1.11s-.74,0-1-.47-.23-.94.06-1.12S301.83,193,302.1,193.43Z" style="fill:#263238"></path><path d="M301,193.05l.73-1S301.72,193.19,301,193.05Z" style="fill:#263238"></path><path d="M294.51,193.08a3.26,3.26,0,0,0-1.89,2.16" style="fill:none;stroke:#263238;stroke-linecap:round;stroke-linejoin:round;stroke-width:0.7246800000000001px"></path><path d="M298.32,190.62a2.91,2.91,0,0,1,2.41-.79" style="fill:none;stroke:#263238;stroke-linecap:round;stroke-linejoin:round;stroke-width:0.7246800000000001px"></path><path d="M290.81,202s0-5.9-2.33-9.12c0,0,8.25-10.49,15,.11,0,0-4.45-10.28-13.9-5.2s-1.66,18.69,5.47,20C295,207.79,290.83,205.65,290.81,202Z" style="fill:#263238"></path><path d="M292.35,202.62a2.74,2.74,0,0,0-3.8-.72c-1.57,1.14-.41,5,4.24,3.5C293.45,205.18,293.46,204.4,292.35,202.62Z" style="fill:#ebb376"></path><path d="M301.88,201.67a3.63,3.63,0,0,1-3.36-.81" style="fill:none;stroke:#263238;stroke-linecap:round;stroke-linejoin:round;stroke-width:0.5px"></path><path d="M302.28,190.22c2.55,3.58,6,10.05,2.89,14.2" style="fill:none;stroke:#263238;stroke-linecap:round;stroke-linejoin:round;stroke-width:0.5px"></path><path d="M282.79,200.53s3.43,3.14-4.18,8.43-9.61,9.53-4.43,14.71,8.86,6,6.11,9.8" style="fill:none;stroke:#263238;stroke-linecap:round;stroke-linejoin:round;stroke-width:0.5px"></path><path d="M296.87,188s-5.22-1.31-7.34,9.32" style="fill:none;stroke:#263238;stroke-linecap:round;stroke-linejoin:round;stroke-width:0.5px"></path><path d="M300.74,240.57A54.49,54.49,0,0,0,295,233l3-4.11S302.53,234.82,300.74,240.57Z" style="opacity:0.2;isolation:isolate"></path><path d="M289,217.5c-4,.91-2.5,18.84-1.74,29.81.22,3.24-4.07,21.78-4.07,21.78s-5.49.66-6.86.58-3,2-3,2l7.23,2s4.93-.11,5.59-1.05l.65-.95S292.27,251.11,293,248s1.15-23,1.15-23S293,216.57,289,217.5Z" style="fill:#ebb376"></path><path d="M290.14,216.49c-5.76,1.19-5.21,14-6.4,19.28s2.54,11.54,2.54,11.54l-1.07,3.19,7.41,1.74,1.89-4.24s3-12.1,3.81-15.72S293.49,215.79,290.14,216.49Z" style="fill:#407BFF"></path><path d="M294.51,248l-11-.69.79,4.06s9.19,2.62,9.27,2.25S294.51,248,294.51,248Z" style="fill:#407BFF"></path><path d="M294.51,248l-11-.69.79,4.06s9.19,2.62,9.27,2.25S294.51,248,294.51,248Z" style="opacity:0.2;isolation:isolate"></path><path d="M438.14,260.77c-.24,3.82-.44,6.9-.62,9.72,0,.62-.07,1.22-.11,1.82-.21,3.31-2.9,1.06-8.78.55-.05,0-.09-.07-.12-.19a24.86,24.86,0,0,1,.23-5c0-.38.07-.72.1-1l.1-.79s4.65-4,5.89-8.14S438.43,256.1,438.14,260.77Z" style="fill:#263238"></path><path d="M430.88,262.8a11,11,0,0,1-1,2.33l0,.06h0l-.06,0h-.05l-.08,0c-.07,0-1.66-.72-2-1.69a1.06,1.06,0,0,1,.08-.9c.17-.31.38-.45.61-.42s.71.56,1,1.15a3,3,0,0,1,.27-1.56.78.78,0,0,1,.5-.34.65.65,0,0,1,.73.22A1.46,1.46,0,0,1,430.88,262.8Zm-1.06,1.69c.5-1,1-2.26.71-2.61,0,0-.08-.12-.36-.07a.38.38,0,0,0-.26.19A4.54,4.54,0,0,0,429.82,264.49ZM428,263a.78.78,0,0,0,0,.4,3.18,3.18,0,0,0,1.43,1.3c-.33-1.06-.81-2.1-1.12-2.14-.1,0-.2.15-.25.24A.7.7,0,0,0,428,263Z" style="fill:#407BFF"></path><path d="M437.52,270.49c0,.62-.07,1.22-.11,1.82-.21,3.31-2.9,1.06-8.78.55-.05,0-.09-.07-.12-.19l-.27,0c-.13,0-.26,0-.4,0l-2.64.2c-2.36-1.73-5.55-4.1-7.89-5.83,3.32.22,6.83.41,10.54.53.3,0,.59,0,.89,0,0-.38.07-.72.1-1Z" style="opacity:0.2;isolation:isolate"></path><path d="M379,242.53c-1-.1-.34,12.54-.1,12.53,1.35-.09,59.44,16.61,59.44,16.61l1.84-4.6S384.72,243.05,379,242.53Z" style="fill:#ebb376"></path><path d="M431.22,270.08c-.36-.44,5.18-4.73,5.18-4.73s6.13.44,9.92-1.59,3.69,1.41.19,4.5l-8.68,7.64C435.34,278.1,435,274.6,431.22,270.08Z" style="fill:#263238"></path><path d="M439.93,264.56a10.37,10.37,0,0,1-2.34.95h-.07l-.07,0h0l0,0h0l0-.06a4.06,4.06,0,0,1-.22-2.61,1,1,0,0,1,.7-.58.63.63,0,0,1,.73.14c.23.29.1.89-.13,1.5a2.8,2.8,0,0,1,1.29-.91.73.73,0,0,1,.6.11.66.66,0,0,1,.36.67C440.65,264,440.34,264.31,439.93,264.56ZM438,265c1.06-.35,2.28-.91,2.35-1.33,0,0,0-.15-.21-.31a.37.37,0,0,0-.31-.05C439.25,263.42,438.46,264.35,438,265Zm-.24-2.34a.79.79,0,0,0-.27.3,3.1,3.1,0,0,0,.1,1.92c.51-1,.9-2.05.71-2.3-.06-.07-.24,0-.34,0A.72.72,0,0,0,437.75,262.66Z" style="fill:#407BFF"></path></g><g id="freepik--character-1--inject-20"><path d="M148.71,196.76s-8.75,19.46-12.58,23-17.82,0-17.82,0l1.89-7.55s11.37,1.07,13.31,1,9.09-15.76,9.09-15.76Z" style="fill:#b97964"></path><path d="M148.71,196.76s-8.75,19.46-12.58,23-17.82,0-17.82,0l1.89-7.55s11.37,1.07,13.31,1,9.09-15.76,9.09-15.76Z" style="opacity:0.2;isolation:isolate"></path><path d="M133.32,203.11s.45,21.6-5.62,27.27-15-22.41-15-22.41l1-.13s8.7,23.26,12.26,21.49c6.38-3.17,6.38-25.58,6.38-25.58Z" style="fill:#263238"></path><path d="M137.26,181.41a4.87,4.87,0,0,0-2-1c-.89-.08-6.25,7.54-5.5,8.43s3.67,2.86,5.13,2.57,3.58-5.9,3.7-6.36S137.26,181.41,137.26,181.41Z" style="fill:#b97964"></path><rect x="131.46" y="185.06" width="10.84" height="18.05" rx="1.86" style="fill:#263238"></rect><path d="M156.92,197.84H138.58v-7.51h18.34a3.75,3.75,0,0,1,3.75,3.75h0A3.75,3.75,0,0,1,156.92,197.84Z" style="fill:#263238"></path><rect x="132.88" y="190.33" width="4" height="7.11" style="fill:#fff;opacity:0.6000000000000001;isolation:isolate"></rect><path d="M126.27,196.36c-.18.32-.37.62-.57.91A10,10,0,0,1,121,201a9.7,9.7,0,0,1-1.48.45,9.12,9.12,0,0,1-10-4.51c-2.55-4.5-1.35-8.57.12-15.61a9.86,9.86,0,0,1,15.69-5.94C131.31,180,129.46,190.52,126.27,196.36Z" style="fill:#b97964"></path><path d="M121,201a9.7,9.7,0,0,1-1.48.45,9.17,9.17,0,0,1-7.69-1.72,10.62,10.62,0,0,1,1.88-2A14.19,14.19,0,0,1,121,201Z" style="opacity:0.2;isolation:isolate"></path><path d="M104.59,206.18c2.58,4,11.26,5.14,11.26,5.14s5.61,0,5-1.95c-2.94-1.34-4-3.18-4.16-5.18a9.25,9.25,0,0,1,.63-3.6,19.36,19.36,0,0,1,.79-1.89l-8.28-10.46C109.78,193.67,108.93,203.42,104.59,206.18Z" style="fill:#b97964"></path><path d="M126.49,172.42c-1.6-1.26-6.4-3.54-9.71-3.54-10.25,0-10.58,5.9-10.58,5.9a6.9,6.9,0,0,1,3.18-2c-11.14,10.4-1,23.21-1,23.21,4.3-.76,9,1.87,9,1.87s2.72-6,4.95-7.61a12.3,12.3,0,0,0,4.37-8.19c0-2.56,2.13-.81,2.13-.81C131.05,180,128.83,174.27,126.49,172.42Z" style="fill:#263238"></path><path d="M120.13,188.46a4.62,4.62,0,0,0,1.47,3.7c1.25,1,2.72-.76,3.08-2.9.3-1.9,0-4.76-1.56-4.82S120.14,186.46,120.13,188.46Z" style="fill:#b97964"></path><polygon points="132.17 408.39 139.66 409.18 140.04 404.84 141.06 393.02 133.57 392.23 132.44 405.28 132.17 408.39" style="fill:#b97964"></polygon><polygon points="67.05 407.44 74.31 407.44 74.67 405.81 74.72 405.6 76.98 395.12 77.02 394.9 77.9 390.88 70.62 390.88 67.05 407.44" style="fill:#b97964"></polygon><polygon points="133.57 392.23 132.44 405.28 140.04 404.84 141.06 393.02 133.57 392.23" style="opacity:0.2;isolation:isolate"></polygon><polygon points="67.26 406.52 67.27 406.52 74.71 405.6 74.72 405.6 76.92 395.48 76.91 395.48 69.52 396.06 67.33 406.2 67.26 406.52" style="opacity:0.2;isolation:isolate"></polygon><path d="M75.32,407H66.49a.64.64,0,0,0-.62.49L64.44,414a1.07,1.07,0,0,0,.83,1.27l.23,0c2.86,0,4.94-.23,8.52-.23,2.21,0,8.87.23,11.92.23s3.45-3,2.2-3.28c-5.6-1.22-9.81-2.91-11.6-4.52A1.74,1.74,0,0,0,75.32,407Z" style="fill:#263238"></path><path d="M140.46,406.77h-8.83a.65.65,0,0,0-.62.5l-1.43,6.47a1.07,1.07,0,0,0,.83,1.27.58.58,0,0,0,.23,0c2.86,0,4.94-.22,8.52-.22,2.21,0,8.87.23,11.92.23s3.45-3,2.2-3.29c-5.6-1.22-9.81-2.91-11.61-4.51A1.75,1.75,0,0,0,140.46,406.77Z" style="fill:#263238"></path><path d="M141.75,401.9l-10.72.35c3.9-71.67,5.72-75.32-29.06-109.17-.81,10.24-1.73,20.86-2.63,29.71-.56,5.48-.73,10.27-1.64,13.77-6.19,23.74-21.09,65.75-21.09,65.75l-10.46.46s13.09-57.57,14.44-76.33c1.77-24.62-4-51.26-.71-70.53l1.7-9.44,35.29,3.59-.46,12.05C149.55,310.6,155.61,321.08,141.75,401.9Z" style="fill:#263238"></path><path d="M102,293c-.81,10.24-1.73,20.88-2.63,29.73C98,310,96.42,300.88,96.42,300.88s-1.5-1.23-5.64-7.84,0-18.94,0-18.94C90.65,285.55,102,293,102,293Z" style="opacity:0.2;isolation:isolate"></path><polygon points="142.95 400.74 142.43 403.75 129.84 403.75 129.84 400.98 142.95 400.74"></polygon><polygon points="77.85 401.9 76.64 404.67 65.18 404.67 65.39 401.9 77.85 401.9"></polygon><path d="M128.58,199.09c6.38-.55,19.24-8.88,20.13-11.64s-11.78-2.09-11.78-2.09l-.39-3.83s20.17-3.45,22.94,1.83-9.89,15.25-20.17,20.06S128.58,199.09,128.58,199.09Z" style="fill:#b97964"></path><path d="M104.15,204.4s5.16-8.39,14.16-1.29H117s-8.5-3.85-11.66,2.22Z" style="fill:#263238"></path><path d="M128.58,199.09s-1.34,4.71-3.07,12.49c-1.08,4.83-2.3,10.85-3.45,17.66-1.43,8.52-2.73,18.27-3.46,28.51l-39.19-6.32s9.16-40.11,21.77-46.38Z" style="fill:#407BFF"></path><path d="M166,187l3.36-6.58s.1,7.38,9,4.64c0,0-2.91,7.51,2.43,10.2,0,0-4.68,5.42-2.54,9.49,0,0-7.55-2.27-7.55,1.5L166,202.67s2.37,2.37,6.13-.09,3.37-11.81-.39-15.63S166,187,166,187Z" style="fill:#e0e0e0"></path><path d="M125.51,211.58c-1.08,4.83-2.3,10.85-3.45,17.66-5.38-6.61,1-19.54,1-19.54Z" style="opacity:0.2;isolation:isolate"></path><path d="M127.16,199.4l16.64-7.32.42,12.74-20.56,15.59S119.76,211.14,127.16,199.4Z" style="fill:#407BFF"></path></g></svg>